<?xml version="1.0" encoding="UTF-8"?><svg id="a" xmlns="http://www.w3.org/2000/svg" viewBox="0 0 870 450"><defs><style>.b{fill:#9a5fa3;}</style></defs><path class="b" d="M329.14,133.02c-3.94-3.19-10.31-4.78-19.1-4.78-4.55,0-8.95,.38-13.19,1.14-4.25,.76-7.28,1.44-9.1,2.05V387.94c0,7.89,2.05,13.57,6.14,17.05s10.53,5.23,19.33,5.23c4.54,0,8.87-.38,12.96-1.14,4.09-.76,7.05-1.59,8.87-2.5V150.53c0-8.49-1.98-14.33-5.91-17.51Z"/><path class="b" d="M625,197.6c-4.09-3.19-10.39-4.78-18.88-4.78-4.55,0-8.87,.38-12.96,1.14-4.09,.76-7.05,1.45-8.87,2.05v192.84c0,7.58,2.12,13.04,6.37,16.37,4.24,3.33,10.61,5,19.1,5,4.55,0,8.71-.38,12.51-1.14,3.79-.76,6.74-1.59,8.87-2.5V214.65c0-8.19-2.05-13.87-6.14-17.05Z"/><path class="b" d="M541.88,209.36c-2.68-14.61-17-19.54-42.94-14.78-16.1,2.95-30.61,7.46-43.53,13.53-1.28,.6-2.52,1.22-3.75,1.83-.67-5.68-2.61-9.81-5.86-12.33-4.09-3.19-10.39-4.78-18.88-4.78-4.55,0-8.87,.38-12.96,1.14-4.09,.76-7.05,1.45-8.87,2.05v192.84c0,7.58,2.12,13.04,6.37,16.37,4.24,3.33,10.61,5,19.1,5,4.55,0,8.71-.38,12.51-1.14,3.79-.76,6.74-1.59,8.87-2.5v-146.29l6.16-5.98c5.9-4.78,13.6-9.43,23.11-13.95,9.49-4.52,20.36-7.89,32.59-10.14,4.77-.87,9.52-1.43,14.25-1.69,4.73-.25,8.64-.35,11.74-.3,1.11-2.36,1.89-5.2,2.37-8.53,.47-3.32,.38-6.77-.28-10.35Z"/><path class="b" d="M211.58,197.6c-4.09-3.19-10.39-4.78-18.88-4.78-4.55,0-8.87,.38-12.96,1.14-4.09,.76-7.05,1.45-8.87,2.05v192.84c0,7.58,2.12,13.04,6.37,16.37,4.24,3.33,10.61,5,19.1,5,4.55,0,8.71-.38,12.51-1.14,3.79-.76,6.74-1.59,8.87-2.5V214.65c0-8.19-2.05-13.87-6.14-17.05Z"/><path class="b" d="M94.7,284.47c-4.09-3.19-10.39-4.78-18.88-4.78-4.55,0-8.87,.38-12.96,1.14-4.09,.76-7.05,1.45-8.87,2.05v105.97c0,7.58,2.12,13.04,6.37,16.37,4.24,3.33,10.61,5,19.1,5,4.55,0,8.71-.38,12.51-1.14,3.79-.76,6.74-1.59,8.87-2.5v-105.06c0-8.19-2.05-13.87-6.14-17.05Z"/><path class="b" d="M607.49,102.31c-7.89,0-14.56,2.58-20.01,7.73-5.46,5.16-8.19,11.68-8.19,19.56s2.73,14.03,8.19,19.33c5.46,5.31,12.12,7.96,20.01,7.96,8.48,0,15.3-2.65,20.46-7.96,5.15-5.3,7.73-11.75,7.73-19.33s-2.58-14.4-7.73-19.56c-5.16-5.15-11.98-7.73-20.46-7.73Z"/><path class="b" d="M311.41,39.47c-7.89,0-14.56,2.58-20.01,7.73-5.46,5.16-8.19,11.68-8.19,19.56s2.73,14.03,8.19,19.33c5.46,5.31,12.12,7.96,20.01,7.96,8.48,0,15.3-2.65,20.46-7.96,5.15-5.3,7.73-11.75,7.73-19.33s-2.58-14.4-7.73-19.56c-5.16-5.15-11.98-7.73-20.46-7.73Z"/><path class="b" d="M837.85,306.75c-10.77-10.76-27.52-18.72-50.26-23.88l-26.83-6.82c-10-2.12-17.13-5.38-21.37-9.78-4.25-4.39-6.37-9.47-6.37-15.24,0-8.19,3.71-14.48,11.15-18.88,7.42-4.39,17.51-6.59,30.24-6.59,8.19,0,16.15,.91,23.88,2.73,7.73,1.82,14.63,4.09,20.69,6.82,6.06,2.73,10.92,5.31,14.56,7.73,3.33-2.12,6.06-4.92,8.19-8.42,2.12-3.48,3.18-7.65,3.18-12.51,0-6.37-3.11-12.12-9.32-17.28-6.22-5.15-14.86-9.17-25.93-12.05-11.07-2.88-23.73-4.32-37.98-4.32-27.59,0-48.59,6.07-62.99,18.19-14.4,12.13-21.6,26.99-21.6,44.57,0,15.77,4.85,28.65,14.56,38.66,9.7,10,24.71,17.44,45.02,22.29l31.38,8.19c10.01,2.13,17.43,5.54,22.29,10.23,4.85,4.71,7.28,10.99,7.28,18.88,0,18.19-14.26,27.29-42.75,27.29-13.95,0-26.46-2.27-37.52-6.82-11.07-4.55-20.85-9.55-29.34-15.01-3.94,2.43-7.05,5.54-9.32,9.32-2.27,3.8-3.41,7.96-3.41,12.51,0,10.62,7.57,19.49,22.74,26.61,15.16,7.12,34.56,10.69,58.22,10.69,28.49,0,50.26-5.76,65.26-17.28,15.01-11.52,22.51-27.44,22.51-47.76,0-17.28-5.39-31.3-16.14-42.07Z"/></svg>